<mxfile host="app.diagrams.net" modified="2023-10-02T11:59:07.730Z" agent="Mozilla/5.0 (X11; Linux x86_64; rv:109.0) Gecko/20100101 Firefox/118.0" etag="Xk1qhLkEpSsD3-yzy288" version="22.0.0" type="device">
  <diagram name="Page-1" id="ZAXlIcKYfhwMirmJwa6y">
    <mxGraphModel dx="880" dy="410" grid="1" gridSize="10" guides="1" tooltips="1" connect="1" arrows="1" fold="1" page="1" pageScale="1" pageWidth="850" pageHeight="1100" background="#ffffff" math="0" shadow="0">
      <root>
        <mxCell id="0" />
        <mxCell id="1" parent="0" />
        <mxCell id="SiFQLQmgdrt-sC9F-oAY-8" value="pontoon" style="whiteSpace=wrap;html=1;align=center;rounded=0;" vertex="1" parent="1">
          <mxGeometry x="30" y="350" width="100" height="40" as="geometry" />
        </mxCell>
        <mxCell id="SiFQLQmgdrt-sC9F-oAY-9" value="skiff" style="whiteSpace=wrap;html=1;align=center;rounded=0;" vertex="1" parent="1">
          <mxGeometry x="190" y="350" width="100" height="40" as="geometry" />
        </mxCell>
        <mxCell id="SiFQLQmgdrt-sC9F-oAY-11" value="Jet Ski" style="whiteSpace=wrap;html=1;align=center;rounded=0;" vertex="1" parent="1">
          <mxGeometry x="390" y="350" width="100" height="40" as="geometry" />
        </mxCell>
        <mxCell id="SiFQLQmgdrt-sC9F-oAY-20" value="Registration Number" style="ellipse;whiteSpace=wrap;html=1;align=center;rounded=0;" vertex="1" parent="1">
          <mxGeometry x="230" y="160" width="100" height="40" as="geometry" />
        </mxCell>
        <mxCell id="SiFQLQmgdrt-sC9F-oAY-21" value="Capacity" style="ellipse;whiteSpace=wrap;html=1;align=center;rounded=0;" vertex="1" parent="1">
          <mxGeometry x="20" y="520" width="100" height="40" as="geometry" />
        </mxCell>
        <mxCell id="SiFQLQmgdrt-sC9F-oAY-23" value="Manufacturer" style="ellipse;whiteSpace=wrap;html=1;align=center;rounded=0;" vertex="1" parent="1">
          <mxGeometry x="270" y="460" width="100" height="40" as="geometry" />
        </mxCell>
        <mxCell id="SiFQLQmgdrt-sC9F-oAY-24" value="Name" style="ellipse;whiteSpace=wrap;html=1;align=center;rounded=0;" vertex="1" parent="1">
          <mxGeometry x="20" y="160" width="100" height="40" as="geometry" />
        </mxCell>
        <mxCell id="SiFQLQmgdrt-sC9F-oAY-26" value="Age of Jet Ski" style="ellipse;whiteSpace=wrap;html=1;align=center;dashed=1;rounded=0;" vertex="1" parent="1">
          <mxGeometry x="670" y="350" width="100" height="40" as="geometry" />
        </mxCell>
        <mxCell id="SiFQLQmgdrt-sC9F-oAY-27" value="Equipments" style="shape=ext;margin=3;double=1;whiteSpace=wrap;html=1;align=center;rounded=0;" vertex="1" parent="1">
          <mxGeometry x="20" y="640" width="100" height="40" as="geometry" />
        </mxCell>
        <mxCell id="SiFQLQmgdrt-sC9F-oAY-28" value="Description" style="ellipse;whiteSpace=wrap;html=1;align=center;rounded=0;" vertex="1" parent="1">
          <mxGeometry x="180" y="1050" width="100" height="40" as="geometry" />
        </mxCell>
        <mxCell id="SiFQLQmgdrt-sC9F-oAY-29" value="Rental Price" style="ellipse;whiteSpace=wrap;html=1;align=center;rounded=0;" vertex="1" parent="1">
          <mxGeometry x="180" y="1000" width="100" height="40" as="geometry" />
        </mxCell>
        <mxCell id="SiFQLQmgdrt-sC9F-oAY-30" value="Map" style="ellipse;shape=doubleEllipse;margin=3;whiteSpace=wrap;html=1;align=center;rounded=0;" vertex="1" parent="1">
          <mxGeometry x="20" y="870" width="100" height="40" as="geometry" />
        </mxCell>
        <mxCell id="SiFQLQmgdrt-sC9F-oAY-31" value="Net" style="ellipse;shape=doubleEllipse;margin=3;whiteSpace=wrap;html=1;align=center;rounded=0;" vertex="1" parent="1">
          <mxGeometry x="20" y="770" width="100" height="40" as="geometry" />
        </mxCell>
        <mxCell id="SiFQLQmgdrt-sC9F-oAY-32" value="Cutting Board" style="ellipse;shape=doubleEllipse;margin=3;whiteSpace=wrap;html=1;align=center;rounded=0;" vertex="1" parent="1">
          <mxGeometry x="20" y="970" width="100" height="40" as="geometry" />
        </mxCell>
        <mxCell id="SiFQLQmgdrt-sC9F-oAY-33" value="Bucket" style="ellipse;shape=doubleEllipse;margin=3;whiteSpace=wrap;html=1;align=center;rounded=0;" vertex="1" parent="1">
          <mxGeometry x="180" y="630" width="100" height="40" as="geometry" />
        </mxCell>
        <mxCell id="SiFQLQmgdrt-sC9F-oAY-34" value="Bait" style="ellipse;shape=doubleEllipse;margin=3;whiteSpace=wrap;html=1;align=center;rounded=0;" vertex="1" parent="1">
          <mxGeometry x="20" y="820" width="100" height="40" as="geometry" />
        </mxCell>
        <mxCell id="SiFQLQmgdrt-sC9F-oAY-35" value="Rod Rentals" style="ellipse;shape=doubleEllipse;margin=3;whiteSpace=wrap;html=1;align=center;rounded=0;" vertex="1" parent="1">
          <mxGeometry x="20" y="720" width="100" height="40" as="geometry" />
        </mxCell>
        <mxCell id="SiFQLQmgdrt-sC9F-oAY-36" value="Anchor" style="ellipse;shape=doubleEllipse;margin=3;whiteSpace=wrap;html=1;align=center;rounded=0;" vertex="1" parent="1">
          <mxGeometry x="180" y="730" width="100" height="40" as="geometry" />
        </mxCell>
        <mxCell id="SiFQLQmgdrt-sC9F-oAY-37" value="Customer" style="whiteSpace=wrap;html=1;align=center;rounded=0;" vertex="1" parent="1">
          <mxGeometry x="650" y="920" width="100" height="40" as="geometry" />
        </mxCell>
        <mxCell id="SiFQLQmgdrt-sC9F-oAY-38" value="Date of rental" style="ellipse;whiteSpace=wrap;html=1;align=center;rounded=0;" vertex="1" parent="1">
          <mxGeometry x="440" y="730" width="100" height="40" as="geometry" />
        </mxCell>
        <mxCell id="SiFQLQmgdrt-sC9F-oAY-39" value="Overall Charge" style="ellipse;whiteSpace=wrap;html=1;align=center;rounded=0;" vertex="1" parent="1">
          <mxGeometry x="500" y="470" width="100" height="40" as="geometry" />
        </mxCell>
        <mxCell id="SiFQLQmgdrt-sC9F-oAY-40" value="Customer Name" style="ellipse;shape=doubleEllipse;margin=3;whiteSpace=wrap;html=1;align=center;rounded=0;" vertex="1" parent="1">
          <mxGeometry x="540" y="700" width="100" height="40" as="geometry" />
        </mxCell>
        <mxCell id="SiFQLQmgdrt-sC9F-oAY-41" value="First Name" style="ellipse;whiteSpace=wrap;html=1;align=center;rounded=0;" vertex="1" parent="1">
          <mxGeometry x="540" y="780" width="100" height="40" as="geometry" />
        </mxCell>
        <mxCell id="SiFQLQmgdrt-sC9F-oAY-42" value="Last Name" style="ellipse;whiteSpace=wrap;html=1;align=center;rounded=0;" vertex="1" parent="1">
          <mxGeometry x="490" y="630" width="100" height="40" as="geometry" />
        </mxCell>
        <mxCell id="SiFQLQmgdrt-sC9F-oAY-44" value="Amount of Sale" style="ellipse;whiteSpace=wrap;html=1;align=center;rounded=0;" vertex="1" parent="1">
          <mxGeometry x="490" y="400" width="100" height="40" as="geometry" />
        </mxCell>
        <mxCell id="SiFQLQmgdrt-sC9F-oAY-45" value="Date of Sale" style="ellipse;whiteSpace=wrap;html=1;align=center;rounded=0;" vertex="1" parent="1">
          <mxGeometry x="710" y="400" width="100" height="40" as="geometry" />
        </mxCell>
        <mxCell id="SiFQLQmgdrt-sC9F-oAY-48" value="" style="edgeStyle=entityRelationEdgeStyle;fontSize=12;html=1;endArrow=ERzeroToOne;startArrow=ERmandOne;rounded=0;" edge="1" parent="1" source="SiFQLQmgdrt-sC9F-oAY-8" target="SiFQLQmgdrt-sC9F-oAY-24">
          <mxGeometry width="100" height="100" relative="1" as="geometry">
            <mxPoint x="180" y="580" as="sourcePoint" />
            <mxPoint x="280" y="480" as="targetPoint" />
          </mxGeometry>
        </mxCell>
        <mxCell id="SiFQLQmgdrt-sC9F-oAY-49" value="" style="edgeStyle=entityRelationEdgeStyle;fontSize=12;html=1;endArrow=ERzeroToOne;startArrow=ERmandOne;rounded=0;" edge="1" parent="1" source="SiFQLQmgdrt-sC9F-oAY-11" target="SiFQLQmgdrt-sC9F-oAY-24">
          <mxGeometry width="100" height="100" relative="1" as="geometry">
            <mxPoint x="320" y="620" as="sourcePoint" />
            <mxPoint x="420" y="520" as="targetPoint" />
          </mxGeometry>
        </mxCell>
        <mxCell id="SiFQLQmgdrt-sC9F-oAY-50" value="" style="edgeStyle=entityRelationEdgeStyle;fontSize=12;html=1;endArrow=ERzeroToOne;startArrow=ERmandOne;rounded=0;" edge="1" parent="1" source="SiFQLQmgdrt-sC9F-oAY-9" target="SiFQLQmgdrt-sC9F-oAY-24">
          <mxGeometry width="100" height="100" relative="1" as="geometry">
            <mxPoint x="315" y="590" as="sourcePoint" />
            <mxPoint x="235" y="380" as="targetPoint" />
            <Array as="points">
              <mxPoint x="275" y="440" />
              <mxPoint x="345" y="440" />
              <mxPoint x="285" y="400" />
            </Array>
          </mxGeometry>
        </mxCell>
        <mxCell id="SiFQLQmgdrt-sC9F-oAY-51" value="" style="edgeStyle=entityRelationEdgeStyle;fontSize=12;html=1;endArrow=ERzeroToOne;startArrow=ERmandOne;rounded=0;" edge="1" parent="1" source="SiFQLQmgdrt-sC9F-oAY-8" target="SiFQLQmgdrt-sC9F-oAY-20">
          <mxGeometry width="100" height="100" relative="1" as="geometry">
            <mxPoint x="450" y="590" as="sourcePoint" />
            <mxPoint x="190" y="470" as="targetPoint" />
          </mxGeometry>
        </mxCell>
        <mxCell id="SiFQLQmgdrt-sC9F-oAY-52" value="" style="edgeStyle=entityRelationEdgeStyle;fontSize=12;html=1;endArrow=ERzeroToOne;startArrow=ERmandOne;rounded=0;" edge="1" parent="1" source="SiFQLQmgdrt-sC9F-oAY-11" target="SiFQLQmgdrt-sC9F-oAY-20">
          <mxGeometry width="100" height="100" relative="1" as="geometry">
            <mxPoint x="460" y="600" as="sourcePoint" />
            <mxPoint x="200" y="480" as="targetPoint" />
          </mxGeometry>
        </mxCell>
        <mxCell id="SiFQLQmgdrt-sC9F-oAY-53" value="" style="edgeStyle=entityRelationEdgeStyle;fontSize=12;html=1;endArrow=ERzeroToOne;startArrow=ERmandOne;rounded=0;" edge="1" parent="1" source="SiFQLQmgdrt-sC9F-oAY-9" target="SiFQLQmgdrt-sC9F-oAY-20">
          <mxGeometry width="100" height="100" relative="1" as="geometry">
            <mxPoint x="150" y="590" as="sourcePoint" />
            <mxPoint x="270" y="460" as="targetPoint" />
          </mxGeometry>
        </mxCell>
        <mxCell id="SiFQLQmgdrt-sC9F-oAY-54" value="" style="edgeStyle=entityRelationEdgeStyle;fontSize=12;html=1;endArrow=ERzeroToOne;startArrow=ERmandOne;rounded=0;" edge="1" parent="1" source="SiFQLQmgdrt-sC9F-oAY-8" target="SiFQLQmgdrt-sC9F-oAY-23">
          <mxGeometry width="100" height="100" relative="1" as="geometry">
            <mxPoint x="150" y="590" as="sourcePoint" />
            <mxPoint x="350" y="360" as="targetPoint" />
          </mxGeometry>
        </mxCell>
        <mxCell id="SiFQLQmgdrt-sC9F-oAY-55" value="" style="edgeStyle=entityRelationEdgeStyle;fontSize=12;html=1;endArrow=ERone;endFill=1;rounded=0;" edge="1" parent="1" source="SiFQLQmgdrt-sC9F-oAY-22" target="SiFQLQmgdrt-sC9F-oAY-8">
          <mxGeometry width="100" height="100" relative="1" as="geometry">
            <mxPoint x="330" y="810" as="sourcePoint" />
            <mxPoint x="430" y="710" as="targetPoint" />
          </mxGeometry>
        </mxCell>
        <mxCell id="SiFQLQmgdrt-sC9F-oAY-56" value="" style="edgeStyle=entityRelationEdgeStyle;fontSize=12;html=1;endArrow=ERone;endFill=1;rounded=0;" edge="1" parent="1" source="SiFQLQmgdrt-sC9F-oAY-22" target="SiFQLQmgdrt-sC9F-oAY-8">
          <mxGeometry width="100" height="100" relative="1" as="geometry">
            <mxPoint x="200" y="660" as="sourcePoint" />
            <mxPoint x="150" y="590" as="targetPoint" />
          </mxGeometry>
        </mxCell>
        <mxCell id="SiFQLQmgdrt-sC9F-oAY-57" value="" style="edgeStyle=entityRelationEdgeStyle;fontSize=12;html=1;endArrow=ERone;endFill=1;rounded=0;" edge="1" parent="1" source="SiFQLQmgdrt-sC9F-oAY-21" target="SiFQLQmgdrt-sC9F-oAY-8">
          <mxGeometry width="100" height="100" relative="1" as="geometry">
            <mxPoint x="130" y="720" as="sourcePoint" />
            <mxPoint x="140" y="580" as="targetPoint" />
          </mxGeometry>
        </mxCell>
        <mxCell id="SiFQLQmgdrt-sC9F-oAY-22" value="Length" style="ellipse;whiteSpace=wrap;html=1;align=center;rounded=0;" vertex="1" parent="1">
          <mxGeometry x="10" y="460" width="100" height="40" as="geometry" />
        </mxCell>
        <mxCell id="SiFQLQmgdrt-sC9F-oAY-61" value="" style="edgeStyle=entityRelationEdgeStyle;fontSize=12;html=1;endArrow=ERzeroToMany;startArrow=ERmandOne;rounded=0;" edge="1" parent="1" source="SiFQLQmgdrt-sC9F-oAY-11" target="SiFQLQmgdrt-sC9F-oAY-73">
          <mxGeometry width="100" height="100" relative="1" as="geometry">
            <mxPoint x="350" y="810" as="sourcePoint" />
            <mxPoint x="600" y="650" as="targetPoint" />
          </mxGeometry>
        </mxCell>
        <mxCell id="SiFQLQmgdrt-sC9F-oAY-73" value="Jet Ski Type" style="ellipse;shape=doubleEllipse;margin=3;whiteSpace=wrap;html=1;align=center;rounded=0;" vertex="1" parent="1">
          <mxGeometry x="550" y="320" width="100" height="40" as="geometry" />
        </mxCell>
        <mxCell id="SiFQLQmgdrt-sC9F-oAY-74" value="" style="edgeStyle=entityRelationEdgeStyle;fontSize=12;html=1;endArrow=ERmandOne;startArrow=ERmandOne;rounded=0;" edge="1" parent="1" source="SiFQLQmgdrt-sC9F-oAY-26" target="SiFQLQmgdrt-sC9F-oAY-11">
          <mxGeometry width="100" height="100" relative="1" as="geometry">
            <mxPoint x="350" y="840" as="sourcePoint" />
            <mxPoint x="450" y="740" as="targetPoint" />
          </mxGeometry>
        </mxCell>
        <mxCell id="SiFQLQmgdrt-sC9F-oAY-75" value="" style="edgeStyle=entityRelationEdgeStyle;fontSize=12;html=1;endArrow=ERoneToMany;rounded=0;" edge="1" parent="1" source="SiFQLQmgdrt-sC9F-oAY-37" target="SiFQLQmgdrt-sC9F-oAY-40">
          <mxGeometry width="100" height="100" relative="1" as="geometry">
            <mxPoint x="340" y="930" as="sourcePoint" />
            <mxPoint x="440" y="830" as="targetPoint" />
          </mxGeometry>
        </mxCell>
        <mxCell id="SiFQLQmgdrt-sC9F-oAY-77" value="" style="edgeStyle=entityRelationEdgeStyle;fontSize=12;html=1;endArrow=ERone;endFill=1;rounded=0;" edge="1" parent="1" source="SiFQLQmgdrt-sC9F-oAY-40" target="SiFQLQmgdrt-sC9F-oAY-42">
          <mxGeometry width="100" height="100" relative="1" as="geometry">
            <mxPoint x="340" y="960" as="sourcePoint" />
            <mxPoint x="440" y="860" as="targetPoint" />
          </mxGeometry>
        </mxCell>
        <mxCell id="SiFQLQmgdrt-sC9F-oAY-78" value="" style="edgeStyle=entityRelationEdgeStyle;fontSize=12;html=1;endArrow=ERone;endFill=1;rounded=0;exitX=1;exitY=0.5;exitDx=0;exitDy=0;" edge="1" parent="1" source="SiFQLQmgdrt-sC9F-oAY-40" target="SiFQLQmgdrt-sC9F-oAY-41">
          <mxGeometry width="100" height="100" relative="1" as="geometry">
            <mxPoint x="760" y="860" as="sourcePoint" />
            <mxPoint x="710" y="1070" as="targetPoint" />
          </mxGeometry>
        </mxCell>
        <mxCell id="SiFQLQmgdrt-sC9F-oAY-80" style="edgeStyle=orthogonalEdgeStyle;rounded=0;orthogonalLoop=1;jettySize=auto;html=1;" edge="1" parent="1" source="SiFQLQmgdrt-sC9F-oAY-79" target="SiFQLQmgdrt-sC9F-oAY-9">
          <mxGeometry relative="1" as="geometry" />
        </mxCell>
        <mxCell id="SiFQLQmgdrt-sC9F-oAY-81" style="edgeStyle=orthogonalEdgeStyle;rounded=0;orthogonalLoop=1;jettySize=auto;html=1;" edge="1" parent="1" source="SiFQLQmgdrt-sC9F-oAY-79" target="SiFQLQmgdrt-sC9F-oAY-8">
          <mxGeometry relative="1" as="geometry" />
        </mxCell>
        <mxCell id="SiFQLQmgdrt-sC9F-oAY-82" style="edgeStyle=orthogonalEdgeStyle;rounded=0;orthogonalLoop=1;jettySize=auto;html=1;" edge="1" parent="1" source="SiFQLQmgdrt-sC9F-oAY-79" target="SiFQLQmgdrt-sC9F-oAY-27">
          <mxGeometry relative="1" as="geometry" />
        </mxCell>
        <mxCell id="SiFQLQmgdrt-sC9F-oAY-79" value="Fishing" style="shape=ext;margin=3;double=1;whiteSpace=wrap;html=1;align=center;rounded=0;" vertex="1" parent="1">
          <mxGeometry x="190" y="580" width="100" height="40" as="geometry" />
        </mxCell>
        <mxCell id="SiFQLQmgdrt-sC9F-oAY-83" value="" style="edgeStyle=entityRelationEdgeStyle;fontSize=12;html=1;endArrow=ERzeroToMany;startArrow=ERzeroToOne;rounded=0;" edge="1" parent="1" source="SiFQLQmgdrt-sC9F-oAY-27" target="SiFQLQmgdrt-sC9F-oAY-36">
          <mxGeometry width="100" height="100" relative="1" as="geometry">
            <mxPoint x="340" y="900" as="sourcePoint" />
            <mxPoint x="440" y="800" as="targetPoint" />
          </mxGeometry>
        </mxCell>
        <mxCell id="SiFQLQmgdrt-sC9F-oAY-84" value="" style="edgeStyle=entityRelationEdgeStyle;fontSize=12;html=1;endArrow=ERzeroToMany;startArrow=ERzeroToOne;rounded=0;" edge="1" parent="1" source="SiFQLQmgdrt-sC9F-oAY-27" target="SiFQLQmgdrt-sC9F-oAY-30">
          <mxGeometry width="100" height="100" relative="1" as="geometry">
            <mxPoint x="130" y="840" as="sourcePoint" />
            <mxPoint x="360" y="820" as="targetPoint" />
          </mxGeometry>
        </mxCell>
        <mxCell id="SiFQLQmgdrt-sC9F-oAY-85" value="" style="edgeStyle=entityRelationEdgeStyle;fontSize=12;html=1;endArrow=ERzeroToMany;startArrow=ERzeroToOne;rounded=0;" edge="1" parent="1" source="SiFQLQmgdrt-sC9F-oAY-27" target="SiFQLQmgdrt-sC9F-oAY-35">
          <mxGeometry width="100" height="100" relative="1" as="geometry">
            <mxPoint x="20" y="910" as="sourcePoint" />
            <mxPoint x="250" y="890" as="targetPoint" />
          </mxGeometry>
        </mxCell>
        <mxCell id="SiFQLQmgdrt-sC9F-oAY-86" value="" style="edgeStyle=entityRelationEdgeStyle;fontSize=12;html=1;endArrow=ERzeroToMany;startArrow=ERzeroToOne;rounded=0;" edge="1" parent="1" source="SiFQLQmgdrt-sC9F-oAY-27" target="SiFQLQmgdrt-sC9F-oAY-32">
          <mxGeometry width="100" height="100" relative="1" as="geometry">
            <mxPoint x="150" y="860" as="sourcePoint" />
            <mxPoint x="380" y="840" as="targetPoint" />
          </mxGeometry>
        </mxCell>
        <mxCell id="SiFQLQmgdrt-sC9F-oAY-87" value="" style="edgeStyle=entityRelationEdgeStyle;fontSize=12;html=1;endArrow=ERzeroToMany;startArrow=ERzeroToOne;rounded=0;" edge="1" parent="1" source="SiFQLQmgdrt-sC9F-oAY-27" target="SiFQLQmgdrt-sC9F-oAY-31">
          <mxGeometry width="100" height="100" relative="1" as="geometry">
            <mxPoint x="160" y="870" as="sourcePoint" />
            <mxPoint x="420" y="900" as="targetPoint" />
          </mxGeometry>
        </mxCell>
        <mxCell id="SiFQLQmgdrt-sC9F-oAY-89" value="" style="edgeStyle=entityRelationEdgeStyle;fontSize=12;html=1;endArrow=ERzeroToMany;startArrow=ERzeroToOne;rounded=0;" edge="1" parent="1" source="SiFQLQmgdrt-sC9F-oAY-27" target="SiFQLQmgdrt-sC9F-oAY-34">
          <mxGeometry width="100" height="100" relative="1" as="geometry">
            <mxPoint x="130" y="840" as="sourcePoint" />
            <mxPoint x="620" y="1000" as="targetPoint" />
          </mxGeometry>
        </mxCell>
        <mxCell id="SiFQLQmgdrt-sC9F-oAY-90" value="" style="edgeStyle=entityRelationEdgeStyle;fontSize=12;html=1;endArrow=ERzeroToMany;startArrow=ERzeroToOne;rounded=0;" edge="1" parent="1" source="SiFQLQmgdrt-sC9F-oAY-27" target="SiFQLQmgdrt-sC9F-oAY-33">
          <mxGeometry width="100" height="100" relative="1" as="geometry">
            <mxPoint x="130" y="840" as="sourcePoint" />
            <mxPoint x="110" y="1040" as="targetPoint" />
          </mxGeometry>
        </mxCell>
        <mxCell id="SiFQLQmgdrt-sC9F-oAY-92" style="edgeStyle=orthogonalEdgeStyle;rounded=0;orthogonalLoop=1;jettySize=auto;html=1;" edge="1" parent="1" source="SiFQLQmgdrt-sC9F-oAY-91" target="SiFQLQmgdrt-sC9F-oAY-37">
          <mxGeometry relative="1" as="geometry" />
        </mxCell>
        <mxCell id="SiFQLQmgdrt-sC9F-oAY-94" style="edgeStyle=orthogonalEdgeStyle;rounded=0;orthogonalLoop=1;jettySize=auto;html=1;" edge="1" parent="1" source="SiFQLQmgdrt-sC9F-oAY-91" target="SiFQLQmgdrt-sC9F-oAY-11">
          <mxGeometry relative="1" as="geometry" />
        </mxCell>
        <mxCell id="SiFQLQmgdrt-sC9F-oAY-95" style="edgeStyle=orthogonalEdgeStyle;rounded=0;orthogonalLoop=1;jettySize=auto;html=1;" edge="1" parent="1" source="SiFQLQmgdrt-sC9F-oAY-91" target="SiFQLQmgdrt-sC9F-oAY-9">
          <mxGeometry relative="1" as="geometry" />
        </mxCell>
        <mxCell id="SiFQLQmgdrt-sC9F-oAY-96" style="edgeStyle=orthogonalEdgeStyle;rounded=0;orthogonalLoop=1;jettySize=auto;html=1;" edge="1" parent="1" source="SiFQLQmgdrt-sC9F-oAY-91" target="SiFQLQmgdrt-sC9F-oAY-8">
          <mxGeometry relative="1" as="geometry" />
        </mxCell>
        <mxCell id="SiFQLQmgdrt-sC9F-oAY-91" value="Rental" style="shape=ext;margin=3;double=1;whiteSpace=wrap;html=1;align=center;rounded=0;" vertex="1" parent="1">
          <mxGeometry x="320" y="520" width="100" height="40" as="geometry" />
        </mxCell>
        <mxCell id="SiFQLQmgdrt-sC9F-oAY-93" value="" style="edgeStyle=entityRelationEdgeStyle;fontSize=12;html=1;endArrow=ERmandOne;startArrow=ERmandOne;rounded=0;" edge="1" parent="1" source="SiFQLQmgdrt-sC9F-oAY-39" target="SiFQLQmgdrt-sC9F-oAY-91">
          <mxGeometry width="100" height="100" relative="1" as="geometry">
            <mxPoint x="300" y="960" as="sourcePoint" />
            <mxPoint x="400" y="860" as="targetPoint" />
          </mxGeometry>
        </mxCell>
        <mxCell id="SiFQLQmgdrt-sC9F-oAY-98" style="edgeStyle=orthogonalEdgeStyle;rounded=0;orthogonalLoop=1;jettySize=auto;html=1;" edge="1" parent="1" source="SiFQLQmgdrt-sC9F-oAY-97" target="SiFQLQmgdrt-sC9F-oAY-11">
          <mxGeometry relative="1" as="geometry" />
        </mxCell>
        <mxCell id="SiFQLQmgdrt-sC9F-oAY-97" value="Sell" style="shape=ext;margin=3;double=1;whiteSpace=wrap;html=1;align=center;rounded=0;" vertex="1" parent="1">
          <mxGeometry x="570" y="550" width="100" height="40" as="geometry" />
        </mxCell>
        <mxCell id="SiFQLQmgdrt-sC9F-oAY-99" value="" style="edgeStyle=entityRelationEdgeStyle;fontSize=12;html=1;endArrow=ERmandOne;startArrow=ERmandOne;rounded=0;" edge="1" parent="1" source="SiFQLQmgdrt-sC9F-oAY-97" target="SiFQLQmgdrt-sC9F-oAY-44">
          <mxGeometry width="100" height="100" relative="1" as="geometry">
            <mxPoint x="435" y="950" as="sourcePoint" />
            <mxPoint x="450" y="750" as="targetPoint" />
          </mxGeometry>
        </mxCell>
        <mxCell id="SiFQLQmgdrt-sC9F-oAY-100" value="" style="edgeStyle=entityRelationEdgeStyle;fontSize=12;html=1;endArrow=ERmandOne;startArrow=ERmandOne;rounded=0;" edge="1" parent="1" source="SiFQLQmgdrt-sC9F-oAY-45" target="SiFQLQmgdrt-sC9F-oAY-44">
          <mxGeometry width="100" height="100" relative="1" as="geometry">
            <mxPoint x="830" y="730" as="sourcePoint" />
            <mxPoint x="800" y="550" as="targetPoint" />
          </mxGeometry>
        </mxCell>
        <mxCell id="SiFQLQmgdrt-sC9F-oAY-101" value="" style="edgeStyle=entityRelationEdgeStyle;fontSize=12;html=1;endArrow=ERmandOne;startArrow=ERmandOne;rounded=0;" edge="1" parent="1" source="SiFQLQmgdrt-sC9F-oAY-37" target="SiFQLQmgdrt-sC9F-oAY-97">
          <mxGeometry width="100" height="100" relative="1" as="geometry">
            <mxPoint x="850" y="900" as="sourcePoint" />
            <mxPoint x="800" y="550" as="targetPoint" />
          </mxGeometry>
        </mxCell>
        <mxCell id="SiFQLQmgdrt-sC9F-oAY-102" value="" style="edgeStyle=entityRelationEdgeStyle;fontSize=12;html=1;endArrow=ERmandOne;startArrow=ERmandOne;rounded=0;" edge="1" parent="1" source="SiFQLQmgdrt-sC9F-oAY-38" target="SiFQLQmgdrt-sC9F-oAY-91">
          <mxGeometry width="100" height="100" relative="1" as="geometry">
            <mxPoint x="435" y="950" as="sourcePoint" />
            <mxPoint x="450" y="750" as="targetPoint" />
          </mxGeometry>
        </mxCell>
        <mxCell id="SiFQLQmgdrt-sC9F-oAY-103" value="" style="edgeStyle=entityRelationEdgeStyle;fontSize=12;html=1;endArrow=ERmandOne;startArrow=ERmandOne;rounded=0;" edge="1" parent="1" source="SiFQLQmgdrt-sC9F-oAY-33" target="SiFQLQmgdrt-sC9F-oAY-29">
          <mxGeometry width="100" height="100" relative="1" as="geometry">
            <mxPoint x="320" y="1000" as="sourcePoint" />
            <mxPoint x="360" y="830" as="targetPoint" />
          </mxGeometry>
        </mxCell>
        <mxCell id="SiFQLQmgdrt-sC9F-oAY-104" value="" style="edgeStyle=entityRelationEdgeStyle;fontSize=12;html=1;endArrow=ERmandOne;startArrow=ERmandOne;rounded=0;" edge="1" parent="1" source="SiFQLQmgdrt-sC9F-oAY-36" target="SiFQLQmgdrt-sC9F-oAY-29">
          <mxGeometry width="100" height="100" relative="1" as="geometry">
            <mxPoint x="200" y="800" as="sourcePoint" />
            <mxPoint x="350" y="860" as="targetPoint" />
          </mxGeometry>
        </mxCell>
        <mxCell id="SiFQLQmgdrt-sC9F-oAY-105" value="" style="edgeStyle=entityRelationEdgeStyle;fontSize=12;html=1;endArrow=ERmandOne;startArrow=ERmandOne;rounded=0;" edge="1" parent="1" source="SiFQLQmgdrt-sC9F-oAY-34" target="SiFQLQmgdrt-sC9F-oAY-29">
          <mxGeometry width="100" height="100" relative="1" as="geometry">
            <mxPoint x="210" y="810" as="sourcePoint" />
            <mxPoint x="360" y="870" as="targetPoint" />
          </mxGeometry>
        </mxCell>
        <mxCell id="SiFQLQmgdrt-sC9F-oAY-106" value="" style="edgeStyle=entityRelationEdgeStyle;fontSize=12;html=1;endArrow=ERmandOne;startArrow=ERmandOne;rounded=0;" edge="1" parent="1" source="SiFQLQmgdrt-sC9F-oAY-31" target="SiFQLQmgdrt-sC9F-oAY-29">
          <mxGeometry width="100" height="100" relative="1" as="geometry">
            <mxPoint x="220" y="820" as="sourcePoint" />
            <mxPoint x="370" y="880" as="targetPoint" />
          </mxGeometry>
        </mxCell>
        <mxCell id="SiFQLQmgdrt-sC9F-oAY-107" value="" style="edgeStyle=entityRelationEdgeStyle;fontSize=12;html=1;endArrow=ERmandOne;startArrow=ERmandOne;rounded=0;" edge="1" parent="1" source="SiFQLQmgdrt-sC9F-oAY-35" target="SiFQLQmgdrt-sC9F-oAY-29">
          <mxGeometry width="100" height="100" relative="1" as="geometry">
            <mxPoint x="230" y="830" as="sourcePoint" />
            <mxPoint x="380" y="890" as="targetPoint" />
          </mxGeometry>
        </mxCell>
        <mxCell id="SiFQLQmgdrt-sC9F-oAY-108" value="" style="edgeStyle=entityRelationEdgeStyle;fontSize=12;html=1;endArrow=ERmandOne;startArrow=ERmandOne;rounded=0;" edge="1" parent="1" source="SiFQLQmgdrt-sC9F-oAY-30" target="SiFQLQmgdrt-sC9F-oAY-29">
          <mxGeometry width="100" height="100" relative="1" as="geometry">
            <mxPoint x="290" y="890" as="sourcePoint" />
            <mxPoint x="350" y="860" as="targetPoint" />
          </mxGeometry>
        </mxCell>
        <mxCell id="SiFQLQmgdrt-sC9F-oAY-109" value="" style="edgeStyle=entityRelationEdgeStyle;fontSize=12;html=1;endArrow=ERmandOne;startArrow=ERmandOne;rounded=0;" edge="1" parent="1" source="SiFQLQmgdrt-sC9F-oAY-32" target="SiFQLQmgdrt-sC9F-oAY-29">
          <mxGeometry width="100" height="100" relative="1" as="geometry">
            <mxPoint x="300" y="900" as="sourcePoint" />
            <mxPoint x="360" y="870" as="targetPoint" />
          </mxGeometry>
        </mxCell>
        <mxCell id="SiFQLQmgdrt-sC9F-oAY-110" value="" style="edgeStyle=entityRelationEdgeStyle;fontSize=12;html=1;endArrow=ERmandOne;startArrow=ERmandOne;rounded=0;" edge="1" parent="1" source="SiFQLQmgdrt-sC9F-oAY-30" target="SiFQLQmgdrt-sC9F-oAY-28">
          <mxGeometry width="100" height="100" relative="1" as="geometry">
            <mxPoint x="290" y="1040" as="sourcePoint" />
            <mxPoint x="350" y="860" as="targetPoint" />
          </mxGeometry>
        </mxCell>
        <mxCell id="SiFQLQmgdrt-sC9F-oAY-111" value="" style="edgeStyle=entityRelationEdgeStyle;fontSize=12;html=1;endArrow=ERmandOne;startArrow=ERmandOne;rounded=0;" edge="1" parent="1" source="SiFQLQmgdrt-sC9F-oAY-36" target="SiFQLQmgdrt-sC9F-oAY-28">
          <mxGeometry width="100" height="100" relative="1" as="geometry">
            <mxPoint x="260" y="880" as="sourcePoint" />
            <mxPoint x="360" y="870" as="targetPoint" />
          </mxGeometry>
        </mxCell>
        <mxCell id="SiFQLQmgdrt-sC9F-oAY-112" value="" style="edgeStyle=entityRelationEdgeStyle;fontSize=12;html=1;endArrow=ERmandOne;startArrow=ERmandOne;rounded=0;" edge="1" parent="1" source="SiFQLQmgdrt-sC9F-oAY-34" target="SiFQLQmgdrt-sC9F-oAY-28">
          <mxGeometry width="100" height="100" relative="1" as="geometry">
            <mxPoint x="310" y="1060" as="sourcePoint" />
            <mxPoint x="370" y="880" as="targetPoint" />
          </mxGeometry>
        </mxCell>
        <mxCell id="SiFQLQmgdrt-sC9F-oAY-113" value="" style="edgeStyle=entityRelationEdgeStyle;fontSize=12;html=1;endArrow=ERmandOne;startArrow=ERmandOne;rounded=0;" edge="1" parent="1" source="SiFQLQmgdrt-sC9F-oAY-31" target="SiFQLQmgdrt-sC9F-oAY-28">
          <mxGeometry width="100" height="100" relative="1" as="geometry">
            <mxPoint x="320" y="1070" as="sourcePoint" />
            <mxPoint x="380" y="890" as="targetPoint" />
          </mxGeometry>
        </mxCell>
        <mxCell id="SiFQLQmgdrt-sC9F-oAY-114" value="" style="edgeStyle=entityRelationEdgeStyle;fontSize=12;html=1;endArrow=ERmandOne;startArrow=ERmandOne;rounded=0;" edge="1" parent="1" source="SiFQLQmgdrt-sC9F-oAY-35" target="SiFQLQmgdrt-sC9F-oAY-28">
          <mxGeometry width="100" height="100" relative="1" as="geometry">
            <mxPoint x="330" y="1080" as="sourcePoint" />
            <mxPoint x="390" y="900" as="targetPoint" />
          </mxGeometry>
        </mxCell>
        <mxCell id="SiFQLQmgdrt-sC9F-oAY-115" value="" style="edgeStyle=entityRelationEdgeStyle;fontSize=12;html=1;endArrow=ERmandOne;startArrow=ERmandOne;rounded=0;" edge="1" parent="1" source="SiFQLQmgdrt-sC9F-oAY-28" target="SiFQLQmgdrt-sC9F-oAY-33">
          <mxGeometry width="100" height="100" relative="1" as="geometry">
            <mxPoint x="340" y="1090" as="sourcePoint" />
            <mxPoint x="400" y="910" as="targetPoint" />
          </mxGeometry>
        </mxCell>
        <mxCell id="SiFQLQmgdrt-sC9F-oAY-116" value="" style="edgeStyle=entityRelationEdgeStyle;fontSize=12;html=1;endArrow=ERmandOne;startArrow=ERmandOne;rounded=0;" edge="1" parent="1" source="SiFQLQmgdrt-sC9F-oAY-32" target="SiFQLQmgdrt-sC9F-oAY-28">
          <mxGeometry width="100" height="100" relative="1" as="geometry">
            <mxPoint x="290" y="980" as="sourcePoint" />
            <mxPoint x="360" y="990" as="targetPoint" />
          </mxGeometry>
        </mxCell>
        <mxCell id="SiFQLQmgdrt-sC9F-oAY-117" value="Cell Phone Number" style="ellipse;whiteSpace=wrap;html=1;align=center;rounded=0;" vertex="1" parent="1">
          <mxGeometry x="460" y="840" width="100" height="40" as="geometry" />
        </mxCell>
        <mxCell id="SiFQLQmgdrt-sC9F-oAY-118" value="" style="edgeStyle=entityRelationEdgeStyle;fontSize=12;html=1;endArrow=ERmandOne;startArrow=ERmandOne;rounded=0;" edge="1" parent="1" source="SiFQLQmgdrt-sC9F-oAY-37" target="SiFQLQmgdrt-sC9F-oAY-117">
          <mxGeometry width="100" height="100" relative="1" as="geometry">
            <mxPoint x="530" y="850" as="sourcePoint" />
            <mxPoint x="630" y="750" as="targetPoint" />
          </mxGeometry>
        </mxCell>
        <mxCell id="SiFQLQmgdrt-sC9F-oAY-119" value="Boat Safety Certificate ID" style="ellipse;whiteSpace=wrap;html=1;align=center;rounded=0;" vertex="1" parent="1">
          <mxGeometry x="520" y="980" width="100" height="40" as="geometry" />
        </mxCell>
        <mxCell id="SiFQLQmgdrt-sC9F-oAY-120" value="" style="edgeStyle=entityRelationEdgeStyle;fontSize=12;html=1;endArrow=ERmandOne;startArrow=ERmandOne;rounded=0;" edge="1" parent="1" source="SiFQLQmgdrt-sC9F-oAY-37" target="SiFQLQmgdrt-sC9F-oAY-119">
          <mxGeometry width="100" height="100" relative="1" as="geometry">
            <mxPoint x="760" y="950" as="sourcePoint" />
            <mxPoint x="850" y="990" as="targetPoint" />
          </mxGeometry>
        </mxCell>
        <mxCell id="SiFQLQmgdrt-sC9F-oAY-121" value="" style="endArrow=none;html=1;rounded=0;dashed=1;dashPattern=1 2;" edge="1" parent="1" source="SiFQLQmgdrt-sC9F-oAY-11" target="SiFQLQmgdrt-sC9F-oAY-124">
          <mxGeometry relative="1" as="geometry">
            <mxPoint x="700" y="590" as="sourcePoint" />
            <mxPoint x="610" y="950" as="targetPoint" />
          </mxGeometry>
        </mxCell>
        <mxCell id="SiFQLQmgdrt-sC9F-oAY-122" value="N" style="resizable=0;html=1;whiteSpace=wrap;align=right;verticalAlign=bottom;rounded=0;" connectable="0" vertex="1" parent="SiFQLQmgdrt-sC9F-oAY-121">
          <mxGeometry x="1" relative="1" as="geometry" />
        </mxCell>
        <mxCell id="SiFQLQmgdrt-sC9F-oAY-124" value="Flare Gun" style="ellipse;whiteSpace=wrap;html=1;align=center;rounded=0;" vertex="1" parent="1">
          <mxGeometry x="420" y="160" width="100" height="40" as="geometry" />
        </mxCell>
        <mxCell id="SiFQLQmgdrt-sC9F-oAY-125" value="" style="endArrow=none;html=1;rounded=0;dashed=1;dashPattern=1 2;" edge="1" parent="1" source="SiFQLQmgdrt-sC9F-oAY-9" target="SiFQLQmgdrt-sC9F-oAY-124">
          <mxGeometry relative="1" as="geometry">
            <mxPoint x="590" y="570" as="sourcePoint" />
            <mxPoint x="690" y="460" as="targetPoint" />
          </mxGeometry>
        </mxCell>
        <mxCell id="SiFQLQmgdrt-sC9F-oAY-126" value="" style="resizable=0;html=1;whiteSpace=wrap;align=right;verticalAlign=bottom;rounded=0;" connectable="0" vertex="1" parent="SiFQLQmgdrt-sC9F-oAY-125">
          <mxGeometry x="1" relative="1" as="geometry" />
        </mxCell>
        <mxCell id="SiFQLQmgdrt-sC9F-oAY-127" value="" style="endArrow=none;html=1;rounded=0;dashed=1;dashPattern=1 2;" edge="1" parent="1" source="SiFQLQmgdrt-sC9F-oAY-8" target="SiFQLQmgdrt-sC9F-oAY-124">
          <mxGeometry relative="1" as="geometry">
            <mxPoint x="600" y="580" as="sourcePoint" />
            <mxPoint x="520" y="370" as="targetPoint" />
          </mxGeometry>
        </mxCell>
        <mxCell id="SiFQLQmgdrt-sC9F-oAY-128" value="" style="resizable=0;html=1;whiteSpace=wrap;align=right;verticalAlign=bottom;rounded=0;" connectable="0" vertex="1" parent="SiFQLQmgdrt-sC9F-oAY-127">
          <mxGeometry x="1" relative="1" as="geometry" />
        </mxCell>
      </root>
    </mxGraphModel>
  </diagram>
</mxfile>
